<svg width="1920" height="186" viewBox="0 0 1920 186" fill="none" xmlns="http://www.w3.org/2000/svg">
<path d="M75 122.852C155.833 141.018 372.2 184.7 445 185.5C536 186.5 804.5 125.703 888.5 122.852C972.5 120 1274.5 185.5 1375.5 185.5C1476.5 185.5 1581 130 1670.5 130C1760 130 1897.5 185.5 2080.5 185.5C2226.9 185.5 2188.83 47.1667 2151.5 -22H-42L-45.5 125.5L75 122.852Z" fill="#FDC14D"/>
<path d="M-91 -112V168C-28.3426 155.785 124.968 131.919 236.952 134.174C376.931 136.993 447.92 162.362 537.407 162.362C612.396 162.362 756.875 140.282 834.363 140.282C911.852 140.282 1072.83 162.362 1158.82 162.362C1253.8 162.362 1453.27 134.174 1551.26 134.174C1649.24 134.174 1850.71 162.362 1961.2 162.362C2049.58 162.362 1998.02 -40.1208 1961.2 -112H-91Z" fill="#7C47EC"/>
</svg>
